<?xml version="1.0" encoding="UTF-8" standalone="no"?>
<!DOCTYPE svg PUBLIC "-//W3C//DTD SVG 1.1//EN" "http://www.w3.org/Graphics/SVG/1.1/DTD/svg11.dtd">
<svg width="100%" height="100%" viewBox="0 0 55 26" version="1.1" xmlns="http://www.w3.org/2000/svg" xmlns:xlink="http://www.w3.org/1999/xlink" xml:space="preserve" xmlns:serif="http://www.serif.com/" style="fill-rule:evenodd;clip-rule:evenodd;stroke-linejoin:round;stroke-miterlimit:2;">
    <g transform="matrix(1,0,0,1,-15.2544,0.00904718)">
        <g transform="matrix(1,0,0,1,8.03288,1.77636e-15)">
            <g transform="matrix(1,0,0,1,6.46911,0.167679)">
                <g transform="matrix(16,0,0,16,24.3476,10.6483)">
                    <path d="M0.03,-0.117L0.03,-0.382C0.03,-0.414 0.038,-0.444 0.055,-0.472C0.071,-0.499 0.093,-0.521 0.12,-0.537C0.148,-0.553 0.178,-0.561 0.211,-0.561C0.243,-0.561 0.273,-0.553 0.301,-0.537C0.328,-0.521 0.35,-0.499 0.366,-0.472C0.382,-0.445 0.39,-0.415 0.39,-0.382L0.39,-0.371C0.39,-0.356 0.385,-0.344 0.375,-0.335C0.366,-0.325 0.353,-0.32 0.339,-0.32L0.321,-0.32C0.307,-0.32 0.294,-0.325 0.285,-0.334C0.275,-0.344 0.27,-0.356 0.27,-0.371L0.27,-0.381C0.27,-0.398 0.264,-0.412 0.253,-0.424C0.241,-0.435 0.227,-0.441 0.211,-0.441C0.194,-0.441 0.18,-0.435 0.168,-0.424C0.156,-0.412 0.15,-0.398 0.15,-0.381L0.15,-0.118C0.15,-0.101 0.156,-0.087 0.168,-0.075C0.18,-0.064 0.194,-0.058 0.211,-0.058C0.227,-0.058 0.241,-0.064 0.253,-0.075C0.264,-0.087 0.27,-0.101 0.27,-0.118L0.27,-0.128C0.27,-0.143 0.275,-0.155 0.285,-0.165C0.294,-0.174 0.307,-0.179 0.321,-0.179L0.339,-0.179C0.353,-0.179 0.366,-0.174 0.375,-0.165C0.385,-0.155 0.39,-0.143 0.39,-0.128L0.39,-0.117C0.39,-0.084 0.382,-0.054 0.366,-0.027C0.35,0 0.328,0.022 0.301,0.038C0.273,0.054 0.243,0.062 0.211,0.062C0.178,0.062 0.148,0.054 0.12,0.038C0.093,0.022 0.071,0 0.055,-0.027C0.038,-0.055 0.03,-0.085 0.03,-0.117Z" style="fill:rgb(62,36,7);fill-rule:nonzero;"/>
                </g>
                <g transform="matrix(16,0,0,16,31.0516,10.6483)">
                    <path d="M0.03,0.012L0.03,-0.382C0.03,-0.414 0.038,-0.444 0.055,-0.472C0.071,-0.499 0.093,-0.521 0.12,-0.537C0.148,-0.553 0.178,-0.561 0.211,-0.561C0.243,-0.561 0.273,-0.553 0.301,-0.537C0.328,-0.521 0.35,-0.499 0.366,-0.472C0.382,-0.444 0.39,-0.414 0.39,-0.382L0.39,0.012C0.39,0.027 0.385,0.039 0.375,0.048C0.366,0.058 0.353,0.063 0.339,0.063L0.321,0.063C0.307,0.063 0.294,0.058 0.285,0.048C0.275,0.039 0.27,0.027 0.27,0.012L0.27,-0.129L0.15,-0.129L0.15,0.012C0.15,0.027 0.145,0.039 0.135,0.048C0.126,0.058 0.113,0.063 0.099,0.063L0.081,0.063C0.067,0.063 0.054,0.058 0.045,0.048C0.035,0.039 0.03,0.027 0.03,0.012ZM0.27,-0.249L0.27,-0.381C0.27,-0.398 0.264,-0.412 0.253,-0.424C0.241,-0.435 0.227,-0.441 0.211,-0.441C0.194,-0.441 0.18,-0.435 0.168,-0.424C0.156,-0.412 0.15,-0.398 0.15,-0.381L0.15,-0.249L0.27,-0.249Z" style="fill:rgb(62,36,7);fill-rule:nonzero;"/>
                </g>
                <g transform="matrix(16,0,0,16,37.7556,10.6483)">
                    <path d="M0.03,0.012L0.03,-0.51C0.03,-0.525 0.035,-0.537 0.045,-0.547C0.054,-0.556 0.067,-0.561 0.081,-0.561L0.099,-0.562C0.107,-0.562 0.114,-0.56 0.121,-0.556C0.126,-0.559 0.133,-0.56 0.141,-0.56L0.238,-0.561C0.253,-0.561 0.265,-0.556 0.275,-0.546C0.284,-0.537 0.289,-0.524 0.289,-0.51L0.289,-0.492C0.289,-0.478 0.284,-0.465 0.275,-0.456C0.265,-0.446 0.253,-0.441 0.238,-0.441L0.15,-0.441L0.15,-0.369L0.238,-0.369C0.253,-0.369 0.265,-0.364 0.275,-0.354C0.284,-0.345 0.289,-0.332 0.289,-0.318L0.289,-0.3C0.289,-0.286 0.284,-0.273 0.275,-0.264C0.265,-0.254 0.253,-0.249 0.238,-0.249L0.15,-0.249L0.15,0.012C0.15,0.027 0.145,0.039 0.135,0.048C0.126,0.058 0.113,0.063 0.099,0.063L0.081,0.063C0.067,0.063 0.054,0.058 0.045,0.048C0.035,0.039 0.03,0.027 0.03,0.012Z" style="fill:rgb(62,36,7);fill-rule:nonzero;"/>
                </g>
                <g transform="matrix(16,0,0,16,42.8436,10.6483)">
                    <path d="M0.121,0.058C0.114,0.061 0.107,0.063 0.099,0.063L0.081,0.063C0.067,0.063 0.054,0.058 0.045,0.048C0.035,0.039 0.03,0.027 0.03,0.012L0.03,-0.51C0.03,-0.525 0.035,-0.537 0.045,-0.547C0.054,-0.556 0.067,-0.561 0.081,-0.561L0.099,-0.562C0.107,-0.562 0.114,-0.56 0.121,-0.556C0.126,-0.559 0.133,-0.56 0.141,-0.56L0.238,-0.561C0.253,-0.561 0.265,-0.556 0.275,-0.546C0.284,-0.537 0.289,-0.524 0.289,-0.51L0.289,-0.492C0.289,-0.478 0.284,-0.465 0.275,-0.456C0.265,-0.446 0.253,-0.441 0.238,-0.441L0.15,-0.441L0.15,-0.369L0.238,-0.369C0.253,-0.369 0.265,-0.364 0.275,-0.354C0.284,-0.345 0.289,-0.332 0.289,-0.318L0.289,-0.3C0.289,-0.286 0.284,-0.273 0.275,-0.264C0.265,-0.254 0.253,-0.249 0.238,-0.249L0.15,-0.249L0.15,-0.058L0.238,-0.058C0.253,-0.058 0.265,-0.053 0.275,-0.043C0.284,-0.034 0.289,-0.021 0.289,-0.007L0.289,0.011C0.289,0.025 0.284,0.038 0.275,0.047C0.265,0.057 0.253,0.062 0.238,0.062L0.141,0.062C0.133,0.062 0.126,0.061 0.121,0.058Z" style="fill:rgb(62,36,7);fill-rule:nonzero;"/>
                </g>
                <g transform="matrix(16,0,0,16,24.3476,21.6483)">
                    <path d="M0.03,-0.123L0.03,-0.387C0.03,-0.42 0.038,-0.45 0.054,-0.477C0.07,-0.504 0.092,-0.526 0.119,-0.542C0.147,-0.558 0.177,-0.566 0.21,-0.566C0.242,-0.566 0.272,-0.558 0.3,-0.542C0.327,-0.526 0.349,-0.504 0.365,-0.477C0.382,-0.45 0.39,-0.42 0.39,-0.387L0.39,-0.123C0.39,-0.09 0.382,-0.06 0.365,-0.033C0.349,-0.006 0.327,0.016 0.3,0.032C0.272,0.048 0.242,0.056 0.21,0.056C0.177,0.056 0.147,0.048 0.119,0.032C0.092,0.016 0.07,-0.006 0.054,-0.033C0.038,-0.06 0.03,-0.09 0.03,-0.123ZM0.21,-0.064C0.226,-0.064 0.24,-0.07 0.252,-0.081C0.264,-0.093 0.27,-0.107 0.27,-0.124L0.27,-0.386C0.27,-0.403 0.264,-0.417 0.252,-0.429C0.24,-0.44 0.226,-0.446 0.21,-0.446C0.193,-0.446 0.179,-0.44 0.167,-0.429C0.156,-0.417 0.15,-0.403 0.15,-0.386L0.15,-0.124C0.15,-0.107 0.156,-0.093 0.167,-0.081C0.179,-0.07 0.193,-0.064 0.21,-0.064Z" style="fill:rgb(62,36,7);fill-rule:nonzero;"/>
                </g>
                <g transform="matrix(16,0,0,16,31.0516,21.6483)">
                    <path d="M0.03,0.006L0.03,-0.516C0.03,-0.531 0.035,-0.543 0.045,-0.553C0.054,-0.562 0.067,-0.567 0.081,-0.567L0.099,-0.567C0.107,-0.567 0.116,-0.565 0.126,-0.56C0.133,-0.564 0.142,-0.566 0.151,-0.566L0.226,-0.566C0.254,-0.566 0.28,-0.559 0.304,-0.545C0.328,-0.531 0.347,-0.512 0.361,-0.489C0.375,-0.465 0.382,-0.439 0.382,-0.411C0.382,-0.382 0.374,-0.355 0.359,-0.33C0.344,-0.305 0.324,-0.286 0.299,-0.273L0.367,-0.008C0.368,-0.003 0.369,0.002 0.369,0.005C0.369,0.017 0.366,0.028 0.359,0.037C0.352,0.046 0.342,0.052 0.33,0.055L0.313,0.059C0.306,0.06 0.301,0.061 0.298,0.061C0.287,0.061 0.277,0.057 0.268,0.05C0.259,0.043 0.254,0.034 0.251,0.023L0.181,-0.251L0.18,-0.255L0.15,-0.255L0.15,0.006C0.15,0.021 0.145,0.033 0.135,0.042C0.126,0.052 0.113,0.057 0.099,0.057L0.081,0.057C0.067,0.057 0.054,0.052 0.045,0.042C0.035,0.033 0.03,0.021 0.03,0.006ZM0.225,-0.373C0.235,-0.373 0.244,-0.377 0.251,-0.384C0.258,-0.391 0.262,-0.4 0.262,-0.41C0.262,-0.42 0.258,-0.429 0.251,-0.436C0.244,-0.443 0.235,-0.446 0.225,-0.446L0.15,-0.446L0.15,-0.373L0.225,-0.373Z" style="fill:rgb(62,36,7);fill-rule:nonzero;"/>
                </g>
                <g transform="matrix(16,0,0,16,37.6276,21.6483)">
                    <path d="M0.03,0.012L0.03,-0.51C0.03,-0.525 0.035,-0.537 0.045,-0.547C0.054,-0.556 0.066,-0.561 0.081,-0.561L0.098,-0.562C0.112,-0.562 0.124,-0.557 0.135,-0.546C0.145,-0.555 0.156,-0.56 0.17,-0.56L0.191,-0.561C0.224,-0.561 0.254,-0.553 0.282,-0.537C0.309,-0.521 0.331,-0.499 0.347,-0.472C0.364,-0.444 0.372,-0.414 0.372,-0.382L0.372,-0.117C0.372,-0.085 0.364,-0.055 0.347,-0.027C0.331,0 0.309,0.022 0.282,0.038C0.255,0.054 0.225,0.062 0.192,0.062L0.156,0.062C0.147,0.062 0.139,0.058 0.133,0.051C0.123,0.059 0.111,0.063 0.099,0.063L0.081,0.063C0.067,0.063 0.054,0.058 0.045,0.048C0.035,0.039 0.03,0.027 0.03,0.012ZM0.171,-0.058L0.192,-0.058C0.208,-0.058 0.222,-0.064 0.234,-0.075C0.246,-0.087 0.252,-0.101 0.252,-0.118L0.252,-0.381C0.252,-0.398 0.246,-0.412 0.234,-0.424C0.222,-0.435 0.208,-0.441 0.192,-0.441L0.171,-0.441C0.162,-0.441 0.155,-0.442 0.15,-0.445L0.15,-0.054C0.155,-0.057 0.162,-0.058 0.171,-0.058Z" style="fill:rgb(62,36,7);fill-rule:nonzero;"/>
                </g>
                <g transform="matrix(16,0,0,16,44.0436,21.6483)">
                    <path d="M0.121,0.058C0.114,0.061 0.107,0.063 0.099,0.063L0.081,0.063C0.067,0.063 0.054,0.058 0.045,0.048C0.035,0.039 0.03,0.027 0.03,0.012L0.03,-0.51C0.03,-0.525 0.035,-0.537 0.045,-0.547C0.054,-0.556 0.067,-0.561 0.081,-0.561L0.099,-0.562C0.107,-0.562 0.114,-0.56 0.121,-0.556C0.126,-0.559 0.133,-0.56 0.141,-0.56L0.238,-0.561C0.253,-0.561 0.265,-0.556 0.275,-0.546C0.284,-0.537 0.289,-0.524 0.289,-0.51L0.289,-0.492C0.289,-0.478 0.284,-0.465 0.275,-0.456C0.265,-0.446 0.253,-0.441 0.238,-0.441L0.15,-0.441L0.15,-0.369L0.238,-0.369C0.253,-0.369 0.265,-0.364 0.275,-0.354C0.284,-0.345 0.289,-0.332 0.289,-0.318L0.289,-0.3C0.289,-0.286 0.284,-0.273 0.275,-0.264C0.265,-0.254 0.253,-0.249 0.238,-0.249L0.15,-0.249L0.15,-0.058L0.238,-0.058C0.253,-0.058 0.265,-0.053 0.275,-0.043C0.284,-0.034 0.289,-0.021 0.289,-0.007L0.289,0.011C0.289,0.025 0.284,0.038 0.275,0.047C0.265,0.057 0.253,0.062 0.238,0.062L0.141,0.062C0.133,0.062 0.126,0.061 0.121,0.058Z" style="fill:rgb(62,36,7);fill-rule:nonzero;"/>
                </g>
                <g transform="matrix(16,0,0,16,49.1316,21.6483)">
                    <path d="M0.03,0.006L0.03,-0.516C0.03,-0.531 0.035,-0.543 0.045,-0.553C0.054,-0.562 0.067,-0.567 0.081,-0.567L0.099,-0.567C0.107,-0.567 0.116,-0.565 0.126,-0.56C0.133,-0.564 0.142,-0.566 0.151,-0.566L0.226,-0.566C0.254,-0.566 0.28,-0.559 0.304,-0.545C0.328,-0.531 0.347,-0.512 0.361,-0.489C0.375,-0.465 0.382,-0.439 0.382,-0.411C0.382,-0.382 0.374,-0.355 0.359,-0.33C0.344,-0.305 0.324,-0.286 0.299,-0.273L0.367,-0.008C0.368,-0.003 0.369,0.002 0.369,0.005C0.369,0.017 0.366,0.028 0.359,0.037C0.352,0.046 0.342,0.052 0.33,0.055L0.313,0.059C0.306,0.06 0.301,0.061 0.298,0.061C0.287,0.061 0.277,0.057 0.268,0.05C0.259,0.043 0.254,0.034 0.251,0.023L0.181,-0.251L0.18,-0.255L0.15,-0.255L0.15,0.006C0.15,0.021 0.145,0.033 0.135,0.042C0.126,0.052 0.113,0.057 0.099,0.057L0.081,0.057C0.067,0.057 0.054,0.052 0.045,0.042C0.035,0.033 0.03,0.021 0.03,0.006ZM0.225,-0.373C0.235,-0.373 0.244,-0.377 0.251,-0.384C0.258,-0.391 0.262,-0.4 0.262,-0.41C0.262,-0.42 0.258,-0.429 0.251,-0.436C0.244,-0.443 0.235,-0.446 0.225,-0.446L0.15,-0.446L0.15,-0.373L0.225,-0.373Z" style="fill:rgb(62,36,7);fill-rule:nonzero;"/>
                </g>
            </g>
            <g id="_12834072621606751249.svg" serif:id="12834072621606751249.svg" transform="matrix(0.781815,0,0,0.781815,19.7305,12.5)">
                <g transform="matrix(1,0,0,1,-16,-16)">
                    <g id="coffee_cup">
                        <path d="M11.15,17C11.148,17 11.147,17 11.145,17C10.048,17 9.145,17.903 9.145,19C9.145,19.047 9.147,19.093 9.15,19.14L9.78,28L17.14,28C18.186,28.003 19.067,27.184 19.14,26.14L19.72,18L19.79,17L11.15,17ZM17.38,24.16C17.3,25.31 17.09,26.16 15.14,26.16C15.003,26.16 14.89,26.047 14.89,25.91C14.89,25.773 15.003,25.66 15.14,25.66C16.78,25.66 16.82,25.09 16.88,24.16L17.17,20.08C17.18,19.95 17.289,19.849 17.419,19.849C17.426,19.849 17.433,19.849 17.44,19.85C17.57,19.86 17.671,19.969 17.671,20.099C17.671,20.106 17.671,20.113 17.67,20.12L17.38,24.16Z" style="fill:rgb(255,185,44);fill-rule:nonzero;"/>
                        <path d="M17.14,29L9.83,29C8.281,29.006 6.969,27.812 6.83,26.27L6.09,18L5.44,18C5.141,18.002 4.858,18.138 4.67,18.37C4.479,18.601 4.402,18.906 4.46,19.2L5,21.8C5.013,21.866 5.02,21.933 5.02,22C5.02,22.559 4.559,23.02 4,23.02C3.516,23.02 3.095,22.675 3,22.2L2.5,19.59C2.461,19.396 2.441,19.198 2.441,19C2.441,17.355 3.795,16.001 5.44,16L7,16C7.516,15.998 7.954,16.396 8,16.91L8.83,26.09C8.876,26.604 9.314,27.002 9.83,27L17.14,27C17.663,27.001 18.103,26.592 18.14,26.07L18.93,15L7,15C6.451,15 6,14.549 6,14C6,13.451 6.451,13 7,13L20,13C20.277,13.001 20.542,13.117 20.73,13.32C20.92,13.522 21.018,13.794 21,14.07L20.13,26.21C20.02,27.772 18.706,28.999 17.14,29Z" style="fill:rgb(62,36,7);fill-rule:nonzero;"/>
                        <path d="M22.77,29.76C22.25,29.759 21.733,29.692 21.23,29.56C20.701,29.419 20.381,28.869 20.52,28.34C20.661,27.811 21.211,27.491 21.74,27.63C23.319,27.991 24.977,27.497 26.1,26.33C27.826,24.772 27.983,22.078 26.45,20.33C25.458,19.378 24.035,19.017 22.71,19.38C22.62,19.406 22.526,19.419 22.432,19.419C21.884,19.419 21.432,18.968 21.432,18.419C21.432,17.947 21.767,17.536 22.23,17.44C24.232,16.907 26.374,17.466 27.86,18.91C30.181,21.434 30.023,25.418 27.51,27.75C26.257,29.019 24.553,29.741 22.77,29.76Z" style="fill:rgb(62,36,7);fill-rule:nonzero;"/>
                        <path d="M21.85,25.21C21.745,25.208 21.64,25.191 21.54,25.16C21.133,25.024 20.857,24.641 20.857,24.212C20.857,24.102 20.875,23.994 20.91,23.89C21.083,23.347 21.48,22.903 22,22.67C22.497,22.412 23.08,22.368 23.61,22.55C23.67,22.57 23.737,22.539 23.76,22.48L24.12,21.42C24.29,20.899 24.859,20.61 25.38,20.78C25.898,20.959 26.178,21.532 26,22.05L25.64,23.11C25.267,24.189 24.091,24.786 23,24.45C22.94,24.434 22.877,24.464 22.85,24.52C22.711,24.948 22.299,25.232 21.85,25.21Z" style="fill:rgb(62,36,7);fill-rule:nonzero;"/>
                        <path d="M10,11C9.843,11.002 9.688,10.964 9.55,10.89C9.063,10.642 8.865,10.038 9.11,9.55L9.47,8.82C9.662,8.452 9.588,7.999 9.29,7.71C8.403,6.804 8.182,5.429 8.74,4.29L9.11,3.55C9.291,3.25 9.616,3.066 9.967,3.066C10.515,3.066 10.967,3.517 10.967,4.066C10.967,4.198 10.941,4.328 10.89,4.45L10.53,5.18C10.338,5.548 10.412,6.001 10.71,6.29C11.597,7.196 11.818,8.571 11.26,9.71L10.89,10.45C10.721,10.786 10.376,10.999 10,11Z" style="fill:rgb(62,36,7);fill-rule:nonzero;"/>
                        <path d="M18,11C17.843,11.002 17.688,10.964 17.55,10.89C17.063,10.642 16.865,10.038 17.11,9.55L17.47,8.82C17.662,8.452 17.588,7.999 17.29,7.71C16.403,6.804 16.182,5.429 16.74,4.29L17.11,3.55C17.291,3.25 17.616,3.066 17.967,3.066C18.515,3.066 18.967,3.517 18.967,4.066C18.967,4.198 18.941,4.328 18.89,4.45L18.53,5.18C18.338,5.548 18.412,6.001 18.71,6.29C19.597,7.196 19.818,8.571 19.26,9.71L18.89,10.45C18.721,10.786 18.376,10.999 18,11Z" style="fill:rgb(62,36,7);fill-rule:nonzero;"/>
                        <path d="M14,10C13.843,10.002 13.688,9.964 13.55,9.89C13.063,9.642 12.865,9.038 13.11,8.55L13.47,7.82C13.662,7.452 13.588,6.999 13.29,6.71C12.403,5.804 12.182,4.429 12.74,3.29L13.11,2.55C13.291,2.25 13.616,2.066 13.967,2.066C14.515,2.066 14.967,2.517 14.967,3.066C14.967,3.198 14.941,3.328 14.89,3.45L14.53,4.18C14.338,4.548 14.412,5.001 14.71,5.29C15.597,6.196 15.818,7.571 15.26,8.71L14.89,9.45C14.721,9.786 14.376,9.999 14,10Z" style="fill:rgb(62,36,7);fill-rule:nonzero;"/>
                    </g>
                </g>
            </g>
        </g>
    </g>
</svg>
