<?xml version="1.0" encoding="UTF-8" standalone="no"?> <svg xmlns="http://www.w3.org/2000/svg" viewBox="0 0 32 32"><defs><style>.cls-1{fill:#ffb92c;}.cls-2{fill:#201a1a;}</style></defs><title>coffee cup</title><g id="coffee_cup" data-name="coffee cup"><path class="cls-1" d="M11.15,17a2,2,0,0,0-2,2.14L9.78,28h7.36a2,2,0,0,0,2-1.86L19.72,18l.07-1Zm6.23,7.16c-.08,1.15-.29,2-2.24,2a.25.25,0,1,1,0-.5c1.64,0,1.68-.57,1.74-1.5l.29-4.08a.25.25,0,0,1,.27-.23.25.25,0,0,1,.23.27Z"/><path class="cls-2" d="M17.14,29H9.83a3,3,0,0,1-3-2.73L6.09,18H5.44a1,1,0,0,0-.77.37,1,1,0,0,0-.21.83L5,21.8a1,1,0,1,1-2,.4L2.5,19.59A3,3,0,0,1,5.44,16H7a1,1,0,0,1,1,.91l.83,9.18a1,1,0,0,0,1,.91h7.31a1,1,0,0,0,1-.93L18.93,15H7a1,1,0,0,1,0-2H20a1,1,0,0,1,.73.32,1,1,0,0,1,.27.75l-.87,12.14A3,3,0,0,1,17.14,29Z"/><path class="cls-2" d="M22.77,29.76a6.14,6.14,0,0,1-1.54-.2,1,1,0,0,1-.71-1.22,1,1,0,0,1,1.22-.71,4.62,4.62,0,0,0,4.36-1.3,4.28,4.28,0,0,0,.35-6,3.91,3.91,0,0,0-3.74-.95,1,1,0,1,1-.48-1.94,5.9,5.9,0,0,1,5.63,1.47,6.27,6.27,0,0,1-.35,8.84A6.76,6.76,0,0,1,22.77,29.76Z"/><path class="cls-2" d="M21.85,25.21a1.12,1.12,0,0,1-.31-.05,1,1,0,0,1-.63-1.27A2,2,0,0,1,22,22.67a2.05,2.05,0,0,1,1.61-.12.12.12,0,0,0,.15-.07l.36-1.06a1,1,0,0,1,1.26-.64A1,1,0,0,1,26,22.05l-.36,1.06A2.13,2.13,0,0,1,23,24.45a.13.13,0,0,0-.15.07A1,1,0,0,1,21.85,25.21Z"/><path class="cls-2" d="M10,11a.93.93,0,0,1-.45-.11,1,1,0,0,1-.44-1.34l.36-.73a.94.94,0,0,0-.18-1.11,3,3,0,0,1-.55-3.42l.37-.74a1,1,0,0,1,1.78.9l-.36.73a.94.94,0,0,0,.18,1.11,3,3,0,0,1,.55,3.42l-.37.74A1,1,0,0,1,10,11Z"/><path class="cls-2" d="M18,11a.93.93,0,0,1-.45-.11,1,1,0,0,1-.44-1.34l.36-.73a.94.94,0,0,0-.18-1.11,3,3,0,0,1-.55-3.42l.37-.74a1,1,0,0,1,1.78.9l-.36.73a.94.94,0,0,0,.18,1.11,3,3,0,0,1,.55,3.42l-.37.74A1,1,0,0,1,18,11Z"/><path class="cls-2" d="M14,10a.93.93,0,0,1-.45-.11,1,1,0,0,1-.44-1.34l.36-.73a.94.94,0,0,0-.18-1.11,3,3,0,0,1-.55-3.42l.37-.74a1,1,0,0,1,1.78.9l-.36.73a.94.94,0,0,0,.18,1.11,3,3,0,0,1,.55,3.42l-.37.74A1,1,0,0,1,14,10Z"/></g></svg>